<svg id="图层_1" data-name="图层 1" xmlns="http://www.w3.org/2000/svg" viewBox="0 0 454.52 454.52"><defs><style>.cls-1{fill:#d32329;}.cls-2{font-size:257.51px;fill:#efc21a;stroke:#040000;stroke-width:5px;font-family:MicrosoftYaHei, Microsoft YaHei;}.cls-2,.cls-4,.cls-5{stroke-miterlimit:10;}.cls-3{fill:#f0bd4d;}.cls-4{fill:#bb1b21;stroke-width:8px;}.cls-4,.cls-5{stroke:#fff;}.cls-5{fill:#2e3a94;stroke-width:9px;}</style></defs><title>幸运</title><path class="cls-1" d="M227.26,26.26c-111,0-201,90-201,201s90,201,201,201,201-90,201-201S338.27,26.26,227.26,26.26Zm0,316a115,115,0,1,1,115-115A115,115,0,0,1,227.26,342.26Z"/><text class="cls-2" transform="translate(146.81 328.45)">6</text><circle class="cls-3" cx="73.26" cy="260.52" r="16.25"/><circle class="cls-3" cx="89.51" cy="305.52" r="16.25"/><circle class="cls-3" cx="124.01" cy="343.52" r="16.25"/><circle class="cls-3" cx="171.01" cy="374.02" r="16.25"/><circle class="cls-3" cx="228.01" cy="386.02" r="16.25"/><circle class="cls-3" cx="285.01" cy="376.02" r="16.25"/><circle class="cls-3" cx="332.01" cy="347.52" r="16.25"/><circle class="cls-3" cx="368.01" cy="309.52" r="16.25"/><circle class="cls-3" cx="385.26" cy="265.52" r="16.25"/><circle class="cls-4" cx="68.26" cy="65.72" r="40.93"/><circle class="cls-5" cx="386.26" cy="389.02" r="40.93"/></svg>