<svg class="ldi-7hqlf2" width="100%" height="100%" xmlns="http://www.w3.org/2000/svg" viewBox="0 0 100 100" preserveAspectRatio="xMidYMid" xmlns:xlink="http://www.w3.org/1999/xlink"><!--?xml version="1.0" encoding="utf-8"?--><!--Generator: Adobe Illustrator 21.0.0, SVG Export Plug-In . SVG Version: 6.00 Build 0)--><svg version="1.1" id="Layer_1" xmlns="http://www.w3.org/2000/svg" xmlns:xlink="http://www.w3.org/1999/xlink" x="0px" y="0px" viewBox="0 0 100 100" style="transform-origin: 50px 50px 0px;" xml:space="preserve"><g style="transform-origin: 50px 50px 0px;"><g style="transform-origin: 50px 50px 0px; transform: scale(0.6);"><g style="transform-origin: 50px 50px 0px;"><g><style type="text/css" class="ld ld-fade" style="transform-origin: 50px 50px 0px; animation-duration: 1s; animation-delay: -1s; animation-direction: normal;">.st0{fill:#F4E6C8;} .st1{fill:#333333;} .st2{fill:#E0E0E0;} .st3{fill:#E15C64;} .st4{fill:#C33837;} .st5{fill:#D65A62;} .st6{fill:none;} .st7{fill:#F7B26A;} .st8{fill:#F47E5F;} .st9{opacity:0.2;fill:#353035;} .st10{fill:#666766;} .st11{fill:#A0C8D7;} .st12{fill:#77A4BD;} .st13{fill:#ACBD81;} .st14{fill:#FFFFFF;} .st15{fill:#849B87;} .st16{fill:none;stroke:#E0E0E0;stroke-width:4;stroke-miterlimit:10;} .st17{fill:none;stroke:#333333;stroke-width:4;stroke-miterlimit:10;} .st18{fill:#FFFFFF;stroke:#333333;stroke-width:4;stroke-miterlimit:10;} .st19{fill:none;stroke:#000000;stroke-width:4;stroke-miterlimit:10;} .st20{fill:#FFFFFF;stroke:#000000;stroke-width:4;stroke-miterlimit:10;} .st21{fill:#010101;} .st22{fill:#A5A6A6;} .st23{fill:#666666;} .st24{fill:#F3E4C7;} .st25{fill:none;stroke:#FFFFFF;stroke-linecap:round;stroke-miterlimit:10;} .st26{fill:#353035;} .st27{fill:#B93A38;} .st28{fill:#EA7C60;} .st29{fill:#E0E0E0;stroke:#F7B26A;stroke-width:8;stroke-miterlimit:10;} .st30{fill:none;stroke:#F7B26A;stroke-width:10;stroke-linecap:round;stroke-miterlimit:10;} .st31{fill:none;stroke:#010101;stroke-width:8;stroke-miterlimit:10;} .st32{fill:#F0AF6B;stroke:#010101;stroke-width:8;stroke-miterlimit:10;} .st33{fill:#829985;} .st34{fill:#A8B980;} .st35{fill:#F0AF6B;} .st36{fill:#4A3827;} .st37{fill:#332518;} .st38{fill:#E6E6E6;}</style><g class="ld ld-fade" style="transform-origin: 50px 50px 0px; animation-duration: 1s; animation-delay: -0.928571s; animation-direction: normal;"><path class="st21" d="M21.4,36.3c0-1.5,0-2.8,0-4l0-0.5c0-0.4,0-0.8,0-1.3c-1.5-2-2.5-4.4-2.5-7.1c0-6.4,5.2-11.6,11.6-11.6 S42.1,17,42.1,23.4c0,2.3-0.7,4.4-1.8,6.2c0.1,1.1,0.2,2.2,0.2,3.1l0,0.7c0,0.4,0.1,0.8,0.1,1.3l0,0.3c0,0.2,0,0.4,0,0.6 c3.4-2.9,5.6-7.3,5.6-12.1c0-8.8-7.1-15.9-15.9-15.9c-8.8,0-15.9,7.1-15.9,15.9C14.7,28.7,17.3,33.4,21.4,36.3z" fill="rgb(1, 1, 1)" style="fill: rgb(1, 1, 1);"></path></g><g class="ld ld-fade" style="transform-origin: 50px 50px 0px; animation-duration: 1s; animation-delay: -0.857143s; animation-direction: normal;"><polygon class="st21" points="92.2,20.9 66,20.9 66,14.5 51.2,23 66,31.6 66,25.2 92.2,25.2 " fill="rgb(1, 1, 1)" style="fill: rgb(1, 1, 1);"></polygon></g><g class="ld ld-fade" style="transform-origin: 50px 50px 0px; animation-duration: 1s; animation-delay: -0.785714s; animation-direction: normal;"><path class="st24" d="M61.3,80.9c1.4-3.8,3.1-12.8,3.3-17.8c0-0.7,0.1-1,0.2-1.4c0-0.2,0.1-0.5,0.1-2.3c0-2.7-1.9-5.2-2.6-5.3 c-1.4-0.1-2.2-0.1-2.6,3c-0.1,0.6-0.1,1.5-0.3,2.7l-3.2-0.3c0.1-1,0.1-2.1,0.3-3.1c0.1-0.9,0.1-1.4,0.1-2.5c0-0.6,0-1.4,0-2.6 c0-1.8-0.7-3.9-2.9-4c-1.7-0.1-3.2,0.4-3.5,4.1c-0.2,2-0.2,2.5-0.3,5l0,0.5l-3.2,0c0-1.5,0-2.2,0-2.9c0-1.1,0-1.7-0.1-4.8 c-0.2-5.6-2-5.6-3.1-5.7c-2.6-0.1-3.2,0.9-3.7,5.7L39.5,52c-0.1,1.3-0.1,1.3-0.1,2.1l0,0.8l-3.2,0c0-9.7-0.5-16.1-0.7-19.6 c0-0.7-0.1-1.2-0.1-1.6l0-0.7c-0.3-5.8-0.9-10.6-4.5-10.7c-0.8,0-1.5,0.2-2,0.7c-1.8,1.7-1.9,6.3-2,9l0,0.5c-0.1,2.8,0.1,6.4,0.4,13 c0.2,4.3,0.5,9.9,0.8,17.4l0.3,8l-3.4-7.2c-0.5-1-3.7-6.2-6.1-8.6c-3-3-5.9-2.9-7.6-1.8c-0.6,0.4,0.5,2.5,1.5,4.3 c0.5,1,1.1,2.2,1.7,3.4c0.8,1.9,1.8,4.6,2.7,7.4c1.5,4.3,3.2,9.3,4.9,12.2c0.9,1.5,1.5,2.3,2,2.9c1.2,1.6,1.8,2.4,3,7.3h28.9 l-0.5-1.9C58.7,87.8,59.9,84.9,61.3,80.9z" fill="rgb(243, 228, 199)" style="fill: rgb(243, 228, 199);"></path></g><g class="ld ld-fade" style="transform-origin: 50px 50px 0px; animation-duration: 1s; animation-delay: -0.714286s; animation-direction: normal;"><path class="st21" d="M62.5,50.9c-1.1-0.1-2,0.1-2.7,0.4c-0.1-4-2.5-6.9-6-6.9c-1.3,0-3.1,0.2-4.5,1.5c-0.6-2.5-2-5.1-5.7-5.2 C41.5,40.5,40,41.1,39,42c-0.1-3-0.3-5.3-0.4-7c0-0.6-0.1-1.2-0.1-1.6l0-0.7c-0.3-5-0.8-13.5-7.6-13.7c-1.7-0.1-3.2,0.5-4.3,1.5 c-2.8,2.6-2.9,7.8-3,11.3l0,0.5c-0.1,2.9,0.1,6.6,0.4,13.2c0.1,3.1,0.3,6.8,0.5,11.4c-1.1-1.6-2.3-3.2-3.5-4.3 c-4.3-4.3-8.8-4-11.5-2.3c-3.1,1.9-1.3,5.3,0.4,8.5c0.5,1,1.1,2.1,1.6,3.2c0.8,1.8,1.7,4.4,2.6,7.2c1.5,4.5,3.3,9.6,5.1,12.7 c1,1.7,1.7,2.6,2.2,3.3c0.8,1.1,1.2,1.6,2.2,5.3c0.1,0.6,0.3,1.2,0.5,1.9l3.1-0.8c-0.1-0.4-0.2-0.8-0.3-1.2c-1.2-4.8-1.8-5.7-3-7.3 c-0.5-0.6-1.1-1.4-2-2.9c-1.7-2.9-3.4-7.8-4.9-12.2c-1-2.8-1.9-5.5-2.7-7.4c-0.5-1.2-1.2-2.4-1.7-3.4c-1-1.8-2.1-3.9-1.5-4.3 c1.7-1.1,4.6-1.1,7.6,1.8c2.4,2.4,5.7,7.6,6.1,8.6l3.4,7.2l-0.3-8c-0.3-7.5-0.6-13.1-0.8-17.4c-0.3-6.6-0.5-10.2-0.4-13l0-0.5 c0.1-2.7,0.2-7.3,2-9c0.5-0.5,1.1-0.7,2-0.7c3.6,0.1,4.2,4.9,4.5,10.7l0,0.7c0,0.4,0.1,1,0.1,1.6c0.3,3.4,0.7,9.8,0.7,19.6l3.2,0 l0-0.8c0-0.7,0-0.7,0.1-2.1l0.2-2.5c0.5-4.8,1.1-5.8,3.7-5.7c1.1,0,2.8,0.1,3.1,5.7c0.1,3.1,0.1,3.7,0.1,4.8c0,0.6,0,1.4,0,2.9 l3.2,0l0-0.5c0.1-2.5,0.1-3,0.3-5c0.3-3.7,1.9-4.2,3.5-4.1c2.1,0,2.9,2.2,2.9,4c0,1.2,0,2,0,2.6c0,1.1,0,1.6-0.1,2.5 c-0.2,1-0.2,2.1-0.3,3.1l3.2,0.3c0.1-1.2,0.2-2.1,0.3-2.7c0.4-3.2,1.2-3.1,2.6-3c0.8,0.2,2.7,2.7,2.6,5.3c0,1.8-0.1,2.1-0.1,2.3 c-0.1,0.3-0.1,0.6-0.2,1.4c-0.1,5-1.9,13.9-3.3,17.8c-1.4,4-2.7,6.9-6,7.8l0.5,1.9l0.3,1.2c1.1-0.3,2-0.7,2.8-1.2 c3.1-2.1,4.4-5.6,5.4-8.6c1.4-4.1,3.3-13.4,3.5-18.7c0-0.5,0-0.5,0.1-0.7c0.1-0.5,0.2-1,0.2-3.1C68.2,55.5,65.3,51.1,62.5,50.9z" fill="rgb(1, 1, 1)" style="fill: rgb(1, 1, 1);"></path></g><metadata xmlns:d="https://loading.io/stock/" class="ld ld-fade" style="transform-origin: 50px 50px 0px; animation-duration: 1s; animation-delay: -0.642857s; animation-direction: normal;">
<d:name class="ld ld-fade" style="transform-origin: 50px 50px 0px; animation-duration: 1s; animation-delay: -0.571429s; animation-direction: normal;">drag left</d:name>
<d:tags class="ld ld-fade" style="transform-origin: 50px 50px 0px; animation-duration: 1s; animation-delay: -0.5s; animation-direction: normal;">finger,hand,tap,move,touch,input,drag left,web application</d:tags>
<d:license class="ld ld-fade" style="transform-origin: 50px 50px 0px; animation-duration: 1s; animation-delay: -0.428571s; animation-direction: normal;">rf</d:license>
<d:slug class="ld ld-fade" style="transform-origin: 50px 50px 0px; animation-duration: 1s; animation-delay: -0.357143s; animation-direction: normal;">7hqlf2</d:slug>
</metadata></g></g></g></g><style type="text/css" class="ld ld-fade" style="transform-origin: 50px 50px 0px; animation-duration: 1s; animation-delay: -0.285714s; animation-direction: normal;">@keyframes ld-fade {
  0% {
    opacity: 1;
  }
  100% {
    opacity: 0;
  }
}
@-webkit-keyframes ld-fade {
  0% {
    opacity: 1;
  }
  100% {
    opacity: 0;
  }
}
.ld.ld-fade {
  -webkit-animation: ld-fade 1s infinite linear;
  animation: ld-fade 1s infinite linear;
}
</style></svg></svg>