<svg class="ldi-220zq7" width="100%" height="100%" xmlns="http://www.w3.org/2000/svg" xmlns:xlink="http://www.w3.org/1999/xlink" viewBox="0 0 100 100" preserveAspectRatio="xMidYMid"><!--?xml version="1.0" encoding="utf-8"?--><!--Generator: Adobe Illustrator 21.0.0, SVG Export Plug-In . SVG Version: 6.00 Build 0)--><svg version="1.1" id="Layer_1" xmlns="http://www.w3.org/2000/svg" xmlns:xlink="http://www.w3.org/1999/xlink" x="0px" y="0px" viewBox="0 0 100 100" style="transform-origin: 50px 50px 0px;" xml:space="preserve"><g style="transform-origin: 50px 50px 0px;"><g style="transform-origin: 50px 50px 0px; transform: scale(0.6);"><g style="transform-origin: 50px 50px 0px;"><g><style type="text/css" class="ld ld-breath" style="transform-origin: 50px 50px 0px; animation-duration: 1s; animation-delay: -1s; animation-direction: normal;">.st0{fill:#F4E6C8;} .st1{fill:#333333;} .st2{fill:#E0E0E0;} .st3{fill:#E15C64;} .st4{fill:#C33837;} .st5{fill:#D65A62;} .st6{fill:none;} .st7{fill:#F7B26A;} .st8{fill:#F47E5F;} .st9{opacity:0.2;fill:#353035;} .st10{fill:#666766;} .st11{fill:#A0C8D7;} .st12{fill:#77A4BD;} .st13{fill:#ACBD81;} .st14{fill:#FFFFFF;} .st15{fill:#849B87;} .st16{fill:none;stroke:#E0E0E0;stroke-width:4;stroke-miterlimit:10;} .st17{fill:none;stroke:#333333;stroke-width:4;stroke-miterlimit:10;} .st18{fill:#FFFFFF;stroke:#333333;stroke-width:4;stroke-miterlimit:10;} .st19{fill:none;stroke:#000000;stroke-width:4;stroke-miterlimit:10;} .st20{fill:#FFFFFF;stroke:#000000;stroke-width:4;stroke-miterlimit:10;} .st21{fill:#010101;} .st22{fill:#A5A6A6;} .st23{fill:#666666;} .st24{fill:#F3E4C7;} .st25{fill:none;stroke:#FFFFFF;stroke-linecap:round;stroke-miterlimit:10;} .st26{fill:#353035;} .st27{fill:#B93A38;} .st28{fill:#EA7C60;} .st29{fill:#E0E0E0;stroke:#F7B26A;stroke-width:8;stroke-miterlimit:10;} .st30{fill:none;stroke:#F7B26A;stroke-width:10;stroke-linecap:round;stroke-miterlimit:10;} .st31{fill:none;stroke:#010101;stroke-width:8;stroke-miterlimit:10;} .st32{fill:#F0AF6B;stroke:#010101;stroke-width:8;stroke-miterlimit:10;} .st33{fill:#829985;} .st34{fill:#A8B980;} .st35{fill:#F0AF6B;} .st36{fill:#4A3827;} .st37{fill:#332518;} .st38{fill:#E6E6E6;}</style><g class="ld ld-breath" style="transform-origin: 50px 50px 0px; animation-duration: 1s; animation-delay: -0.947368s; animation-direction: normal;"><path class="st3" d="M48.8,20.7V7.5h-2.9v13.2c0.5,0,1-0.1,1.4-0.1S48.3,20.6,48.8,20.7z" fill="rgb(225, 92, 100)" style="fill: rgb(225, 92, 100);"></path></g><g class="ld ld-breath" style="transform-origin: 50px 50px 0px; animation-duration: 1s; animation-delay: -0.894737s; animation-direction: normal;"><path class="st3" d="M37.7,24.1l-9.3-9.3l-2,2l9.3,9.3C36.3,25.3,36.9,24.7,37.7,24.1z" fill="rgb(225, 92, 100)" style="fill: rgb(225, 92, 100);"></path></g><g class="ld ld-breath" style="transform-origin: 50px 50px 0px; animation-duration: 1s; animation-delay: -0.842105s; animation-direction: normal;"><path class="st3" d="M32.3,34.3H19.1v2.9h13.2c0-0.5-0.1-1-0.1-1.4C32.2,35.3,32.2,34.8,32.3,34.3z" fill="rgb(225, 92, 100)" style="fill: rgb(225, 92, 100);"></path></g><g class="ld ld-breath" style="transform-origin: 50px 50px 0px; animation-duration: 1s; animation-delay: -0.789474s; animation-direction: normal;"><path class="st3" d="M62.4,37.2h13.2v-2.9H62.4c0,0.5,0.1,1,0.1,1.4C62.5,36.2,62.5,36.7,62.4,37.2z" fill="rgb(225, 92, 100)" style="fill: rgb(225, 92, 100);"></path></g><g class="ld ld-breath" style="transform-origin: 50px 50px 0px; animation-duration: 1s; animation-delay: -0.736842s; animation-direction: normal;"><path class="st3" d="M59,26.1l9.3-9.3l-2-2L57,24.1C57.7,24.7,58.4,25.3,59,26.1z" fill="rgb(225, 92, 100)" style="fill: rgb(225, 92, 100);"></path></g><g class="ld ld-breath" style="transform-origin: 50px 50px 0px; animation-duration: 1s; animation-delay: -0.684211s; animation-direction: normal;"><path class="st21" d="M41.6,92.5l2.8-0.7c-0.2-0.7-0.3-1.3-0.5-1.8h-3C41.1,90.7,41.3,91.5,41.6,92.5z" fill="rgb(1, 1, 1)" style="fill: rgb(1, 1, 1);"></path></g><g class="ld ld-breath" style="transform-origin: 50px 50px 0px; animation-duration: 1s; animation-delay: -0.631579s; animation-direction: normal;"><path class="st21" d="M70.2,91.9c1.4-0.4,2.6-1.1,3.5-1.9h-4L70.2,91.9z" fill="rgb(1, 1, 1)" style="fill: rgb(1, 1, 1);"></path></g><g class="ld ld-breath" style="transform-origin: 50px 50px 0px; animation-duration: 1s; animation-delay: -0.578947s; animation-direction: normal;"><path class="st0" d="M74.8,82.1c1.2-3.4,2.8-11.4,2.9-15.9c0-0.7,0.1-0.9,0.1-1.2c0-0.2,0.1-0.4,0.1-2.1c0-2.4-1.7-4.6-2.4-4.8 c-1.2-0.1-1.9-0.1-2.3,2.7c0,0.6-0.1,1.3-0.2,2.4l-2.9-0.2c0.1-0.9,0.1-1.8,0.3-2.8c0.1-0.8,0.1-1.2,0-2.2c0-0.6,0-1.3,0-2.3 c0-1.6-0.7-3.5-2.6-3.5c-1.5-0.1-2.9,0.4-3.2,3.7c-0.2,1.8-0.2,2.2-0.3,4.5l0,0.4l-2.9,0c0-1.3,0-2,0-2.6c0-1,0-1.5-0.1-4.3 c-0.2-5-1.8-5-2.7-5.1c-2.3-0.1-2.9,0.8-3.3,5.1l-0.2,2.2c-0.1,1.2-0.1,1.2-0.1,1.8l0,0.7l-2.9,0c0-8.7-0.4-14.4-0.6-17.5 c0-0.6-0.1-1.1-0.1-1.4l0-0.6c-0.3-5.2-0.8-9.5-4-9.6c-0.8,0-1.3,0.2-1.8,0.6c-1.6,1.5-1.7,5.6-1.8,8l0,0.5 c-0.1,2.5,0.1,5.7,0.4,11.6c0.2,3.9,0.4,8.9,0.7,15.6l0.3,7.1l-3-6.5c-0.4-0.9-3.3-5.5-5.5-7.7c-2.7-2.7-5.2-2.6-6.7-1.6 c-0.5,0.3,0.5,2.2,1.3,3.8c0.5,0.9,1,1.9,1.5,3c0.8,1.7,1.6,4.1,2.5,6.6c1.3,3.9,2.9,8.3,4.4,10.9c0.8,1.3,1.3,2,1.8,2.6 c1,1.3,1.5,2.1,2.5,5.7h25.8l-0.2-0.9C72.4,88.3,73.5,85.7,74.8,82.1z" fill="rgb(244, 230, 200)" style="fill: rgb(244, 230, 200);"></path></g><g class="ld ld-breath" style="transform-origin: 50px 50px 0px; animation-duration: 1s; animation-delay: -0.526316s; animation-direction: normal;"><path class="st21" d="M77.5,83.1c1.3-3.7,3-11.9,3.1-16.8c0-0.4,0-0.5,0.1-0.6c0.1-0.5,0.2-0.9,0.2-2.8c0-3.6-2.6-7.5-5.1-7.6 c-1,0-1.8,0.1-2.4,0.3c-0.1-3.6-2.2-6.1-5.4-6.2c-1.1,0-2.7,0.2-4,1.3c-0.5-2.2-1.8-4.6-5.1-4.7c-1.9-0.1-3.1,0.4-4,1.2 c-0.1-2.7-0.3-4.8-0.4-6.2c0-0.6-0.1-1-0.1-1.4l0-0.6c-0.3-4.5-0.7-12-6.8-12.3c-1.5-0.1-2.8,0.4-3.8,1.4c-2.5,2.3-2.6,7-2.7,10.1 l0,0.5c-0.1,2.6,0.1,5.9,0.4,11.8c0.1,2.7,0.3,6.1,0.5,10.2c-1-1.4-2.1-2.8-3.1-3.8c-3.9-3.9-7.9-3.6-10.3-2 c-2.7,1.7-1.2,4.7,0.3,7.6c0.5,0.9,1,1.9,1.4,2.9c0.7,1.6,1.5,3.9,2.4,6.4c1.4,4,2.9,8.6,4.6,11.4c0.9,1.5,1.5,2.3,2,2.9 c0.7,0.9,1,1.3,1.8,3.9h3c-1-3.6-1.5-4.4-2.5-5.7c-0.4-0.5-1-1.2-1.8-2.6c-1.5-2.6-3-7-4.4-10.9c-0.9-2.5-1.7-4.9-2.5-6.6 c-0.5-1.1-1-2.1-1.5-3c-0.9-1.7-1.8-3.5-1.3-3.8c1.5-1,4.1-1,6.7,1.6c2.2,2.2,5.1,6.8,5.5,7.7l3,6.5L44.9,66 c-0.3-6.7-0.5-11.7-0.7-15.6c-0.3-5.9-0.4-9.1-0.4-11.6l0-0.5c0.1-2.4,0.2-6.5,1.8-8c0.5-0.4,1-0.6,1.8-0.6c3.2,0.1,3.7,4.4,4,9.6 l0,0.6c0,0.4,0.1,0.9,0.1,1.4c0.2,3.1,0.7,8.8,0.6,17.5l2.9,0l0-0.7c0-0.6,0-0.6,0.1-1.8l0.2-2.2c0.4-4.3,1-5.1,3.3-5.1 c0.9,0,2.5,0.1,2.7,5.1c0.1,2.7,0.1,3.3,0.1,4.3c0,0.6,0,1.3,0,2.6l2.9,0l0-0.4c0.1-2.3,0.1-2.7,0.3-4.5c0.3-3.3,1.7-3.7,3.2-3.7 c1.9,0,2.6,1.9,2.6,3.5c0,1,0,1.8,0,2.3c0,1,0,1.4,0,2.2c-0.1,0.9-0.2,1.9-0.3,2.8l2.9,0.2c0.1-1.1,0.2-1.9,0.2-2.4 c0.4-2.8,1.1-2.8,2.3-2.7c0.7,0.1,2.4,2.4,2.4,4.8c0,1.6-0.1,1.9-0.1,2.1c-0.1,0.3-0.1,0.6-0.1,1.2c-0.1,4.4-1.7,12.4-2.9,15.9 c-1.3,3.6-2.4,6.2-5.4,7l0.2,0.9h4C75.7,88.1,76.7,85.4,77.5,83.1z" fill="rgb(1, 1, 1)" style="fill: rgb(1, 1, 1);"></path></g><metadata xmlns:d="https://loading.io/stock/" class="ld ld-breath" style="transform-origin: 50px 50px 0px; animation-duration: 1s; animation-delay: -0.473684s; animation-direction: normal;">
<d:name class="ld ld-breath" style="transform-origin: 50px 50px 0px; animation-duration: 1s; animation-delay: -0.421053s; animation-direction: normal;">tap</d:name>
<d:tags class="ld ld-breath" style="transform-origin: 50px 50px 0px; animation-duration: 1s; animation-delay: -0.368421s; animation-direction: normal;">click,pin,point,peek,finger,tap,web application</d:tags>
<d:license class="ld ld-breath" style="transform-origin: 50px 50px 0px; animation-duration: 1s; animation-delay: -0.315789s; animation-direction: normal;">rf</d:license>
<d:slug class="ld ld-breath" style="transform-origin: 50px 50px 0px; animation-duration: 1s; animation-delay: -0.263158s; animation-direction: normal;">220zq7</d:slug>
</metadata></g></g></g></g><style type="text/css" class="ld ld-breath" style="transform-origin: 50px 50px 0px; animation-duration: 1s; animation-delay: -0.210526s; animation-direction: normal;">@keyframes ld-breath {
  0% {
    -webkit-transform: scale(0.86);
    transform: scale(0.86);
  }
  50% {
    -webkit-transform: scale(1.06);
    transform: scale(1.06);
  }
  100% {
    -webkit-transform: scale(0.86);
    transform: scale(0.86);
  }
}
@-webkit-keyframes ld-breath {
  0% {
    -webkit-transform: scale(0.86);
    transform: scale(0.86);
  }
  50% {
    -webkit-transform: scale(1.06);
    transform: scale(1.06);
  }
  100% {
    -webkit-transform: scale(0.86);
    transform: scale(0.86);
  }
}
.ld.ld-breath {
  -webkit-animation: ld-breath 1s infinite;
  animation: ld-breath 1s infinite;
}
</style></svg></svg>